<svg width="72" height="72" viewBox="0 0 72 72" fill="none" xmlns="http://www.w3.org/2000/svg">
<path d="M35.885 48.869C39.051 48.869 41.624 51.437 41.619 54.609C41.619 57.776 39.051 60.338 35.885 60.338C32.718 60.338 30.151 57.775 30.151 54.609C30.151 51.443 32.718 48.875 35.885 48.869ZM33.468 11.426H38.307C40.578 11.426 42.406 13.535 42.406 16.155L40.968 39.384C40.968 42.004 39.135 44.113 35.885 44.113C32.635 44.113 30.807 42.004 30.807 39.384L29.369 16.155C29.37 13.536 31.198 11.426 33.468 11.426ZM35.885 0C16.068 0 0 16.063 0 35.885C0 55.702 16.067 71.765 35.885 71.765C55.701 71.771 71.769 55.702 71.769 35.885C71.769 16.063 55.702 0 35.885 0Z" fill="#1E1E2D"/>
</svg>
