<svg width="96" height="120" viewBox="0 0 96 120" fill="none" xmlns="http://www.w3.org/2000/svg">
<path d="M48 120C96 102 96 18 96 18C72 18 48 0 48 0C48 0 24 18 0 18C0 18 0 102 48 120ZM48 36C51.5601 36 55.0402 37.0557 58.0003 39.0335C60.9604 41.0114 63.2675 43.8226 64.6298 47.1117C65.9922 50.4008 66.3487 54.02 65.6541 57.5116C64.9596 61.0033 63.2453 64.2106 60.7279 66.7279C58.2106 69.2453 55.0033 70.9596 51.5116 71.6541C48.02 72.3487 44.4008 71.9922 41.1117 70.6298C37.8226 69.2675 35.0114 66.9604 33.0335 64.0003C31.0557 61.0402 30 57.5601 30 54C30 49.2261 31.8964 44.6477 35.2721 41.2721C38.6477 37.8964 43.2261 36 48 36Z" fill="#d0d5dd"/>
</svg>
