<svg width="120" height="101" viewBox="0 0 120 101" fill="none" xmlns="http://www.w3.org/2000/svg">
<path d="M72.2993 40.9046L65.0298 33.6351C63.7837 34.8414 62.4685 36.0955 61.1055 37.3762L68.1996 45.3471C69.6716 43.7237 71.024 42.257 72.2993 40.9046Z" fill="white"/>
<path d="M68.0687 28.9033L65.6846 31.2875L74.821 40.4239L77.2052 38.0398L68.0687 28.9033Z" fill="white"/>
<path d="M70.4365 28.2628L77.6343 35.4605C78.2542 34.8565 78.8636 34.2729 79.4623 33.7096C79.0637 33.0825 78.6652 32.5033 78.2959 31.9879C76.6618 29.756 74.9428 27.5534 73.2476 25.3986C72.3894 26.2754 71.2814 27.4019 70.4365 28.2628Z" fill="white"/>
<path d="M67.6788 14.7227C69.6636 17.4329 71.7759 20.1084 73.8218 22.6937L73.9945 22.9142C74.0239 22.9349 74.0523 22.957 74.0795 22.9806C74.1851 23.0803 74.2692 23.2006 74.3266 23.334C76.2237 25.7253 78.1659 28.2069 80.0099 30.7284C83.0627 34.8998 86.7612 42.6662 89.1578 48.0306C92.8776 47.005 97.9259 44.7732 104.813 37.8996C111.641 31.0711 113.884 25.9883 114.928 22.2393C109.563 19.8481 101.808 16.1495 97.6416 13.0993C94.8996 11.0907 92.2081 8.96507 89.6069 6.90857C87.0057 4.85207 84.3461 2.7504 81.6359 0.768291C80.8781 0.207964 79.9437 -0.0606797 79.004 0.0115332C78.0643 0.0837461 77.182 0.491984 76.5186 1.16152L68.0721 9.60009C65.7392 11.9329 66.6426 13.5298 67.5221 14.5314C67.5965 14.6191 67.6469 14.6829 67.6788 14.7227Z" fill="white"/>
<path d="M30.8135 35.2719L30.848 35.2559C33.7176 33.8318 38.1202 30.2475 38.5719 27.4922C38.6436 27.1059 38.615 26.7077 38.4889 26.3356C38.3629 25.9635 38.1435 25.6299 37.8518 25.3667C37.3454 24.8581 36.6971 24.5145 35.992 24.3809C35.7598 24.337 35.5241 24.3148 35.2879 24.3145C34.8469 24.3023 34.4087 24.3876 34.0045 24.5643C33.4413 24.8964 32.8302 25.3002 32.1845 25.7307C30.6123 26.8267 28.9532 27.7926 27.2239 28.6188C24.8938 29.6816 22.6406 30.2582 20.8312 30.7205C20.0846 30.9118 19.3805 31.0898 18.7614 31.2811C18.2162 31.4408 17.7221 31.74 17.3279 32.1491C16.9336 32.5582 16.653 33.0631 16.5136 33.6139C16.3782 34.143 16.3852 34.6986 16.5341 35.2241C16.683 35.7496 16.9684 36.2263 17.3612 36.6057C19.2716 38.5107 26.8015 37.4426 30.8135 35.2719Z" fill="white"/>
<path d="M100.872 12.7088L102.341 11.553L93.042 4.57312L92.0908 6.16731C94.3121 7.92091 96.5891 9.70109 98.8953 11.3883C99.4825 11.8107 100.147 12.2571 100.872 12.7088Z" fill="white"/>
<path d="M52.9482 37.9049L52.8818 37.966C52.1325 38.5984 45.4768 44.1727 42.8624 45.2329C37.8407 47.2734 24.2369 48.129 20.0469 48.3468L20.7536 52.1118L25.9852 51.676C26.1274 51.6641 26.2705 51.6809 26.4061 51.7255C26.5416 51.77 26.6668 51.8414 26.7742 51.9354C26.8815 52.0294 26.9689 52.144 27.031 52.2724C27.0931 52.4009 27.1287 52.5405 27.1357 52.683L27.3456 56.9794L32.4364 56.5463C32.5907 56.5332 32.7461 56.5539 32.8916 56.6072C33.0371 56.6604 33.1692 56.7448 33.2786 56.8545C33.4616 57.0377 33.5745 57.2794 33.5975 57.5373L33.9136 61.7327L39.0336 61.297C39.188 61.2838 39.3434 61.3046 39.4889 61.3579C39.6344 61.4111 39.7665 61.4955 39.8759 61.6052C40.0664 61.7953 40.1807 62.0486 40.1974 62.3172L40.4073 66.6136L45.4981 66.1805C45.6524 66.1674 45.8078 66.1882 45.9533 66.2414C46.0988 66.2946 46.2309 66.379 46.3403 66.4887C46.5308 66.6789 46.6452 66.9321 46.6618 67.2008L46.8717 71.4971L51.9625 71.064C52.1169 71.0509 52.2722 71.0717 52.4177 71.1249C52.5632 71.1782 52.6953 71.2626 52.8048 71.3722C52.9878 71.5555 53.1006 71.7971 53.1236 72.0551L53.4398 76.2504L58.5598 75.8147C58.7142 75.8016 58.8695 75.8224 59.015 75.8756C59.1605 75.9288 59.2926 76.0132 59.402 76.1229C59.5916 76.3089 59.7076 76.557 59.7289 76.8217L59.9387 81.118L65.0295 80.6849C65.1839 80.6718 65.3393 80.6926 65.4848 80.7458C65.6303 80.7991 65.7623 80.8835 65.8718 80.9931C66.0623 81.1833 66.1766 81.4366 66.1933 81.7052L66.4032 86.0015L71.494 85.5685C71.6483 85.5553 71.8037 85.5761 71.9492 85.6294C72.0947 85.6826 72.2268 85.767 72.3362 85.8767C72.5267 86.0668 72.641 86.3201 72.6577 86.5887L72.8676 90.8851L77.9584 90.452C78.1128 90.4389 78.2681 90.4597 78.4136 90.5129C78.5591 90.5661 78.6912 90.6505 78.8006 90.7602C78.9911 90.9504 79.1055 91.2036 79.1221 91.4723L79.332 95.7686L84.4228 95.3355C84.5772 95.3224 84.7326 95.3432 84.878 95.3964C85.0235 95.4497 85.1556 95.5341 85.2651 95.6437C85.4556 95.8339 85.5699 96.0872 85.5866 96.3558L85.7965 100.673L90.7863 100.339C90.996 100.325 91.2049 100.374 91.3867 100.479L99.3417 83.5545L55.196 33.9327C54.8242 35.4375 54.0467 36.8114 52.9482 37.9049Z" fill="white"/>
<path d="M116.891 23.1056C115.741 27.0911 113.312 32.405 106.314 39.4008C99.2755 46.4418 93.9775 48.865 90.0186 49.9862C90.6111 51.3466 91.0813 52.436 91.347 53.0949C93.3185 52.9169 99.8653 51.599 109.189 42.2757C118.435 33.0294 119.817 26.4295 120 24.4314C119.349 24.1631 118.254 23.7008 116.891 23.1056Z" fill="white"/>
<path d="M18.6095 46.2957H18.7317C18.9097 46.2957 36.5574 45.4986 42.0626 43.2748C43.9996 42.4777 49.4783 38.0618 51.4763 36.3825C52.6641 35.1759 53.3254 33.5478 53.3154 31.8547C53.3055 30.1616 52.6251 28.5414 51.4232 27.3488C47.8389 23.8018 43.524 19.7791 40.3755 16.8458C36.6132 13.32 36.3661 13.0702 36.2067 12.7886C32.5772 6.3454 26.6096 3.02418 24.5159 2.01453C23.9846 3.34302 24.7232 6 25.3874 8.34877C26.2616 11.4654 27.0879 14.4093 25.7807 16.2001C24.8906 17.4197 22.8952 17.7943 20.5863 18.2513C18.9921 18.5595 17.3288 18.881 16.1438 19.4709C13.6276 20.7223 12.5223 22.2899 11.5472 23.6716C10.867 24.636 10.2187 25.55 9.23035 26.1532C8.07987 26.8706 6.12699 26.8706 4.24054 26.8706C3.26543 26.8706 1.7908 26.8838 1.44274 27.0725C0.858204 27.4206 0.249756 29.5329 0 31.406L13.0803 44.4863C13.7945 45.2018 14.6675 45.7386 15.6283 46.0531C16.589 46.3675 17.6105 46.4506 18.6095 46.2957ZM14.4407 33.0852C14.6672 32.1781 15.1266 31.3457 15.7734 30.6705C16.4202 29.9953 17.232 29.5006 18.1286 29.2353C18.7955 29.0307 19.5235 28.8447 20.294 28.6481C22.1114 28.1831 24.1732 27.657 26.328 26.6713C27.9558 25.8907 29.5178 24.98 30.999 23.9479C31.6685 23.5042 32.3009 23.0844 32.9147 22.723C33.9835 22.1913 35.2002 22.035 36.3687 22.2793C37.4987 22.4898 38.5383 23.0383 39.3499 23.8522C39.8835 24.355 40.2842 24.9822 40.516 25.6777C40.7478 26.3732 40.8036 27.1153 40.6783 27.8377C40.0168 31.8737 34.4344 35.8485 31.8173 37.1531C29.3942 38.4603 24.9783 39.7064 21.2505 39.7064C19.0107 39.7064 17.018 39.2547 15.8568 38.0936C15.2049 37.4546 14.7313 36.6562 14.4829 35.7777C14.2345 34.8992 14.2199 33.9711 14.4407 33.0852Z" fill="white"/>
<path d="M39.4908 68.8241C39.3486 68.8361 39.2055 68.8193 39.07 68.7747C38.9344 68.7302 38.8092 68.6588 38.7019 68.5648C38.5945 68.4708 38.5072 68.3562 38.4451 68.2277C38.3829 68.0993 38.3473 67.9596 38.3403 67.8171L38.1304 63.5075L33.0264 63.9433C32.8259 63.9613 32.6245 63.9206 32.4466 63.8263C32.2688 63.7319 32.1222 63.588 32.0247 63.4119C20.4482 73.6147 12.9848 79.9462 9.24642 82.7467C8.47732 83.4386 7.85716 84.2798 7.42373 85.2192C6.99029 86.1585 6.75266 87.1763 6.72532 88.2104C6.69797 89.2446 6.88149 90.2735 7.26467 91.2344C7.64786 92.1953 8.2227 93.0682 8.95415 93.7997L12.1053 96.9509C12.8379 97.6874 13.714 98.2653 14.6794 98.6488C15.6447 99.0323 16.6787 99.2131 17.7169 99.1801C18.7444 99.1394 19.7538 98.8961 20.6872 98.4643C21.6205 98.0325 22.4594 97.4207 23.1557 96.664C26.7267 91.799 36.0341 81.3332 44.7543 71.6512L44.5949 68.391L39.4908 68.8241Z" fill="white"/>
</svg>
