<svg width="120" height="112" viewBox="0 0 120 112" fill="none" xmlns="http://www.w3.org/2000/svg">
<path d="M111.013 46.5823C106.835 46.5823 103.418 49.3671 102.278 53.1646H85.0633V42.1519C85.0633 42.0253 85.0633 41.8987 85.0633 41.7722H95.9494C97.4684 41.7722 98.6076 40.5063 98.6076 39.1139V27.0886C102.405 25.9494 105.19 22.4051 105.19 18.3544C105.19 13.2911 101.013 9.11392 95.9494 9.11392C90.8861 9.11392 86.7089 13.2911 86.7089 18.3544C86.7089 22.5316 89.4937 25.9494 93.2911 27.0886V36.3291H83.4177C81.3924 33.038 77.8481 30.8861 73.7975 30.8861H62.7848V17.9747C66.5823 16.8354 69.3671 13.2911 69.3671 9.24051C69.3671 4.17721 65.1899 0 60.1266 0C55.0633 0 50.8861 4.17721 50.8861 9.24051C50.8861 13.4177 53.6709 16.8354 57.4684 17.9747V30.7595H46.4557C42.4051 30.7595 38.8608 32.9114 36.8354 36.2025H26.962V26.962C30.7595 25.8228 33.5443 22.2785 33.5443 18.2278C33.5443 13.1646 29.3671 8.98734 24.3038 8.98734C19.2405 8.98734 15.0633 13.1646 15.0633 18.2278C15.0633 22.4051 17.8481 25.8228 21.6456 26.962V38.9873C21.6456 40.5063 22.9114 41.6456 24.3038 41.6456H35.1899C35.1899 41.7721 35.1899 41.8987 35.1899 42.0253V53.038H17.9747C16.8354 49.2405 13.2911 46.4557 9.24051 46.4557C4.17722 46.4557 0 50.6329 0 55.6962C0 60.7595 4.17722 64.9367 9.24051 64.9367C13.4177 64.9367 16.8354 62.1519 17.9747 58.3544H35.0633V69.3671C35.0633 69.4937 35.0633 69.6202 35.0633 69.7468H24.1772C22.6582 69.7468 21.519 71.0127 21.519 72.4051V84.557C17.7215 85.6962 14.9367 89.2405 14.9367 93.2911C14.9367 98.3544 19.1139 102.532 24.1772 102.532C29.2405 102.532 33.4177 98.3544 33.4177 93.2911C33.4177 89.1139 30.6329 85.6962 26.8354 84.557V75.0633H36.7089C38.7342 78.3544 42.2785 80.5063 46.3291 80.5063H57.3418V93.2911C53.5443 94.4304 50.7595 97.9747 50.7595 102.025C50.7595 107.089 54.9367 111.266 60 111.266C65.0633 111.266 69.2405 107.089 69.2405 102.025C69.2405 97.8481 66.4557 94.4304 62.6582 93.2911V80.7595H73.6709C77.7215 80.7595 81.2658 78.6076 83.2911 75.3165H93.1646V84.8101C89.3671 85.9494 86.5823 89.4937 86.5823 93.5443C86.5823 98.6076 90.7595 102.785 95.8228 102.785C100.886 102.785 105.063 98.6076 105.063 93.5443C105.063 89.3671 102.278 85.9494 98.481 84.8101V72.6582C98.481 71.1392 97.2152 70 95.8228 70H84.9367C84.9367 69.8734 84.9367 69.7468 84.9367 69.6203V58.6076H102.025C103.165 62.4051 106.709 65.1899 110.759 65.1899C115.823 65.1899 120 61.0127 120 55.9494C120 50.8861 116.076 46.5823 111.013 46.5823ZM92.1519 18.2278C92.1519 16.0759 93.9241 14.4304 95.9494 14.4304C98.1013 14.4304 99.7468 16.2025 99.7468 18.2278C99.7468 20.3797 97.9747 22.0253 95.9494 22.0253C93.9241 22.0253 92.1519 20.3797 92.1519 18.2278ZM20.3797 18.2278C20.3797 16.0759 22.1519 14.4304 24.1772 14.4304C26.3291 14.4304 27.9747 16.2025 27.9747 18.2278C27.9747 20.3797 26.2025 22.0253 24.1772 22.0253C22.1519 22.0253 20.3797 20.3797 20.3797 18.2278ZM9.24051 59.6203C7.08861 59.6203 5.44304 57.8481 5.44304 55.8228C5.44304 53.6709 7.21519 52.0253 9.24051 52.0253C11.2658 52.0253 13.038 53.7975 13.038 55.8228C13.038 57.9747 11.3924 59.6203 9.24051 59.6203ZM28.1013 93.5443C28.1013 95.6962 26.3291 97.3418 24.3038 97.3418C22.1519 97.3418 20.5063 95.5696 20.5063 93.5443C20.5063 91.3924 22.2785 89.7468 24.3038 89.7468C26.3291 89.7468 28.1013 91.519 28.1013 93.5443ZM56.3291 9.24051C56.3291 7.08861 58.1013 5.44304 60.1266 5.44304C62.2785 5.44304 63.924 7.21519 63.924 9.24051C63.924 11.2658 62.1519 13.038 60.1266 13.038C57.9747 13.038 56.3291 11.3924 56.3291 9.24051ZM63.924 102.405C63.924 104.557 62.1519 106.203 60.1266 106.203C57.9747 106.203 56.3291 104.43 56.3291 102.405C56.3291 100.253 58.1013 98.6076 60.1266 98.6076C62.2785 98.6076 63.924 100.253 63.924 102.405ZM73.5443 66.5823C73.5443 68.1013 72.2785 69.2405 70.8861 69.2405H49.3671C47.8481 69.2405 46.7089 67.9747 46.7089 66.5823V45.0633C46.7089 43.5443 47.9747 42.4051 49.3671 42.4051H70.8861C72.4051 42.4051 73.5443 43.6709 73.5443 45.0633V66.5823ZM99.8734 93.5443C99.8734 95.6962 98.1013 97.3418 96.076 97.3418C93.924 97.3418 92.2785 95.5696 92.2785 93.5443C92.2785 91.3924 94.0506 89.7468 96.076 89.7468C98.1013 89.7468 99.8734 91.519 99.8734 93.5443ZM111.013 59.6203C108.861 59.6203 107.215 57.8481 107.215 55.8228C107.215 53.6709 108.987 52.0253 111.013 52.0253C113.165 52.0253 114.81 53.7975 114.81 55.8228C114.81 57.9747 113.165 59.6203 111.013 59.6203Z" fill="#d0d5dd"/>
<path d="M68.2269 47.7218H52.0244V63.9243H68.2269V47.7218Z" fill="#d0d5dd"/>
</svg>
