<svg width="156" height="86" viewBox="0 0 156 86" fill="none" xmlns="http://www.w3.org/2000/svg">
<path d="M152.036 68.3873C150.165 66.5164 147.597 65.3748 144.743 65.3748H10.6067C4.89882 65.3748 0.300781 70.0046 0.300781 75.6808C0.300781 78.5347 1.44236 81.1033 3.31329 82.9742C5.18422 84.8451 7.75278 85.9867 10.6067 85.9867H144.743C150.451 85.9867 155.049 81.357 155.049 75.6808C155.049 72.8268 153.907 70.2582 152.036 68.3873ZM15.5536 80.4374C12.9216 80.4374 10.797 78.3127 10.797 75.6808C10.797 73.0488 12.9216 70.9242 15.5536 70.9242C18.1856 70.9242 20.3102 73.0488 20.3102 75.6808C20.3102 78.3127 18.1856 80.4374 15.5536 80.4374ZM33.3116 80.4374C30.6796 80.4374 28.555 78.3127 28.555 75.6808C28.555 73.0488 30.6796 70.9242 33.3116 70.9242C35.9435 70.9242 38.0681 73.0488 38.0681 75.6808C38.0681 78.3127 35.9118 80.4374 33.3116 80.4374ZM51.0378 80.4374C48.4058 80.4374 46.2812 78.3127 46.2812 75.6808C46.2812 73.0488 48.4058 70.9242 51.0378 70.9242C53.6698 70.9242 55.7944 73.0488 55.7944 75.6808C55.7944 78.3127 53.6698 80.4374 51.0378 80.4374ZM68.7957 80.4374C66.1638 80.4374 64.0392 78.3127 64.0392 75.6808C64.0392 73.0488 66.1638 70.9242 68.7957 70.9242C71.4277 70.9242 73.5523 73.0488 73.5523 75.6808C73.5523 78.3127 71.4277 80.4374 68.7957 80.4374ZM86.5537 80.4374C83.9217 80.4374 81.7971 78.3127 81.7971 75.6808C81.7971 73.0488 83.9217 70.9242 86.5537 70.9242C89.1857 70.9242 91.3103 73.0488 91.3103 75.6808C91.3103 78.3127 89.1857 80.4374 86.5537 80.4374ZM104.312 80.4374C101.68 80.4374 99.5551 78.3127 99.5551 75.6808C99.5551 73.0488 101.68 70.9242 104.312 70.9242C106.944 70.9242 109.068 73.0488 109.068 75.6808C109.068 78.3127 106.944 80.4374 104.312 80.4374ZM122.038 80.4374C119.406 80.4374 117.281 78.3127 117.281 75.6808C117.281 73.0488 119.406 70.9242 122.038 70.9242C124.67 70.9242 126.795 73.0488 126.795 75.6808C126.795 78.3127 124.67 80.4374 122.038 80.4374ZM139.796 80.4374C137.164 80.4374 135.039 78.3127 135.039 75.6808C135.039 73.0488 137.164 70.9242 139.796 70.9242C142.428 70.9242 144.552 73.0488 144.552 75.6808C144.552 78.3127 142.428 80.4374 139.796 80.4374Z" fill="#d0d5dd"/>
<path d="M48.2795 0.241365C48.2795 7.75678 48.2795 15.2722 48.2795 22.7876C49.5797 20.8533 50.8798 18.8872 52.1482 16.9529C53.2898 15.2722 55.129 15.2722 56.2706 16.9529C57.5707 18.8872 58.8709 20.8533 60.1393 22.7876C60.1393 15.2722 60.1393 7.75678 60.1393 0.241365C56.2072 0.241365 52.2433 0.241365 48.2795 0.241365Z" fill="#d0d5dd"/>
<path d="M84.3658 0.241155H64.9272C64.9272 10.008 64.9272 19.7749 64.9272 29.5418C64.9589 29.8272 64.9589 30.1126 64.8955 30.398C64.8004 30.9688 64.515 31.4127 64.1344 31.6981C64.0076 31.7932 63.8807 31.8884 63.7539 31.9835C62.9929 32.4274 62.1684 32.3957 61.5024 32.0152C61.0585 31.8249 60.678 31.5078 60.4243 31.0322C58.3631 28.2416 56.3019 25.4828 54.2407 22.6923C53.4162 23.8022 52.5918 24.912 51.7673 26.0219C50.816 27.2903 49.8964 28.5588 48.945 29.8272C48.4694 30.4931 47.8352 31.5713 47.1375 31.9835C45.5837 32.8397 43.5542 31.7615 43.5542 29.9223C43.5542 20.0286 43.5542 10.1032 43.5542 0.209442H24.0839C21.991 0.209442 20.2786 1.92182 20.2786 4.01472V55.8616C20.2786 57.9545 21.991 59.6669 24.0839 59.6669H84.3658C86.4587 59.6669 88.1711 57.9545 88.1711 55.8616V4.01472C88.1394 1.92182 86.4587 0.241155 84.3658 0.241155Z" fill="#d0d5dd"/>
<path d="M44.2838 28.1785C43.7448 28.9079 43.6813 28.6225 44.2838 28.1785V28.1785Z" fill="#d0d5dd"/>
<path d="M115.759 18.7597C115.759 23.9603 115.759 29.1608 115.759 34.3296C116.679 32.9661 117.63 31.5708 118.55 30.2073C119.311 29.0974 120.547 29.0974 121.277 30.2073C122.196 31.5708 123.148 32.9661 124.067 34.3296C124.067 29.1291 124.067 23.9286 124.067 18.7597C121.309 18.7597 118.518 18.7597 115.759 18.7597Z" fill="#d0d5dd"/>
<path d="M140.747 18.5698H127.238C127.238 25.2924 127.238 31.9834 127.238 38.706C127.428 39.2134 127.302 39.6573 126.953 40.0061C126.319 40.894 124.733 40.8306 124.226 39.8476C122.767 37.9132 121.34 35.9472 119.881 34.0128C119.247 34.869 118.613 35.6935 118.01 36.5497C117.376 37.4059 116.742 38.2938 116.076 39.15C115.759 39.5622 115.378 40.2281 114.934 40.4818C113.888 41.0526 112.556 40.355 112.556 39.1182C112.556 32.2688 112.556 25.4193 112.556 18.5698H99.0475C97.5888 18.5698 96.4155 19.7431 96.4155 21.2017V57.0665C96.4155 58.5252 97.5888 59.6984 99.0475 59.6984H140.715C142.174 59.6984 143.347 58.5252 143.347 57.0665V21.2017C143.379 19.7431 142.206 18.5698 140.747 18.5698Z" fill="#d0d5dd"/>
<path d="M113.064 37.9445C112.715 38.4201 112.683 38.2299 113.064 37.9445V37.9445Z" fill="#d0d5dd"/>
</svg>
