<svg width="120" height="120" viewBox="0 0 120 120" fill="none" xmlns="http://www.w3.org/2000/svg">
<path d="M114.6 49.5122L108.024 48.6722C107.52 48.6242 107.088 48.2161 106.944 47.6643C105.816 43.4161 104.112 39.3361 101.88 35.4962C101.616 35.0642 101.664 34.4401 102.024 33.9842L106.032 28.8242C107.952 26.3763 107.712 22.8721 105.528 20.6642L99.3361 14.4961C97.1522 12.288 93.648 12.0721 91.2001 13.9682L86.0401 17.9761C85.584 18.3361 84.9601 18.4083 84.504 18.1441C80.688 15.8882 76.6082 14.1842 72.36 13.0801C71.8082 12.9361 71.4 12.5041 71.3281 11.9762L70.5121 5.42414C70.128 2.32818 67.488 0 64.3681 0H55.6319C52.536 0 49.8961 2.32818 49.512 5.42414L48.696 11.9762C48.624 12.5041 48.216 12.9361 47.6401 13.0801C43.4161 14.1842 39.312 15.8882 35.496 18.1441C35.064 18.4083 34.4401 18.3361 33.984 17.9761L28.824 13.9682C26.3761 12.0721 22.872 12.288 20.6641 14.4961L14.4961 20.6642C12.288 22.8721 12.0719 26.3763 13.968 28.8242L17.9761 33.9842C18.3361 34.4401 18.4081 35.0642 18.1439 35.4962C15.888 39.3361 14.1841 43.4161 13.0799 47.6401C12.9361 48.2161 12.5039 48.6242 11.976 48.6722L5.42395 49.5122C2.328 49.8963 0 52.5362 0 55.6321V64.3681C0 67.4882 2.328 70.1282 5.4 70.5121L11.976 71.3283C12.5039 71.4002 12.9361 71.8082 13.0799 72.3602C14.1841 76.6082 15.888 80.6882 18.1439 84.5042C18.4081 84.9603 18.3361 85.5842 17.9761 86.0403L13.968 91.1763C12.0719 93.6482 12.288 97.1524 14.4961 99.3363L20.6641 105.528C22.872 107.712 26.3761 107.928 28.824 106.032L33.984 102.024C34.4401 101.664 35.064 101.616 35.496 101.88C39.312 104.112 43.4161 105.816 47.6641 106.944C48.216 107.088 48.624 107.52 48.696 108.024L49.512 114.6C49.8961 117.672 52.536 120 55.6319 120H64.3681C67.488 120 70.128 117.672 70.5121 114.6L71.3281 108.024C71.4 107.52 71.8082 107.088 72.36 106.944C76.6082 105.816 80.688 104.112 84.504 101.88C84.9601 101.616 85.584 101.664 86.0401 102.024L91.2001 106.032C93.648 107.952 97.1522 107.712 99.3361 105.528L105.528 99.3363C107.712 97.1524 107.952 93.6482 106.032 91.1763L102.024 86.0403C101.664 85.5603 101.616 84.9603 101.88 84.5042C104.112 80.6882 105.816 76.6082 106.944 72.3602C107.088 71.8082 107.52 71.4002 108.024 71.3283L114.6 70.5121C117.672 70.1282 120 67.4882 120 64.3681V55.6321C120 52.5362 117.672 49.8963 114.6 49.5122ZM60 89.5203C43.7281 89.5203 30.504 76.2722 30.504 60.0002C30.504 43.7281 43.7281 30.5042 60 30.5042C76.272 30.5042 89.5201 43.7281 89.5201 60.0002C89.5201 76.2722 76.272 89.5203 60 89.5203Z" fill="#d0d5dd"/>
<path d="M60.0026 39.8883C59.1626 39.8883 58.3705 40.3442 57.9385 41.0643C56.7867 43.0322 46.6826 60.2882 46.6826 66.7924C46.6826 74.1363 52.6586 80.1123 60.0026 80.1123C67.3465 80.1123 73.3466 74.1363 73.3466 66.7924C73.3466 60.2882 63.2186 43.0322 62.0666 41.0643C61.6346 40.3442 60.8667 39.8883 60.0026 39.8883Z" fill="#d0d5dd"/>
</svg>
