<svg width="81" height="120" viewBox="0 0 81 120" fill="none" xmlns="http://www.w3.org/2000/svg">
<path d="M80.085 29.3053C80.085 15.4105 69.8534 0 60.506 0C51.1587 0 40.8008 15.4105 40.8008 29.3053C40.8008 40.4211 46.3587 47.1158 54.1903 49.5158L53.1797 112.674C53.1797 116.716 56.3376 120 60.3797 120C64.4218 120 67.7061 116.716 67.5797 112.674L66.5692 49.5158C74.5271 47.2421 80.085 40.4211 80.085 29.3053Z" fill="#d0d5dd"/>
<path d="M28.1684 3.15781C26.4 3.15781 25.0105 4.54728 25.0105 6.3157V32.5894C25.0105 33.3473 24.379 33.9789 23.6211 33.9789H20.2105C19.4526 33.9789 18.8211 33.3473 18.8211 32.5894V6.18939C18.6947 4.54728 17.3053 3.15781 15.6632 3.15781C13.8947 3.15781 12.5053 4.54728 12.5053 6.3157V32.5894C12.5053 33.3473 11.8737 33.9789 11.1158 33.9789H7.70526C6.94737 33.9789 6.31579 33.3473 6.31579 32.5894V6.18939C6.31579 4.42097 4.92632 3.03149 3.15789 3.03149C1.38947 3.03149 0 4.42097 0 6.18939V38.1473C0 43.5789 4.16842 47.9999 9.34737 48.5052L8.33684 112.547C8.33684 116.589 11.4947 119.874 15.5368 119.874C19.579 119.874 22.8632 116.589 22.7368 112.547L21.8526 48.6315C27.1579 48.1262 31.2 43.5789 31.2 38.2736V6.18939C31.2 4.54728 29.8105 3.15781 28.1684 3.15781Z" fill="#d0d5dd"/>
</svg>
