<svg width="120" height="106" viewBox="0 0 120 106" fill="none" xmlns="http://www.w3.org/2000/svg">
<path d="M35.2078 31.8286C35.8387 31.1977 36.0911 30.3145 36.0911 29.5574C36.0911 28.2956 35.4602 27.16 34.1984 26.5291C29.9083 24.3841 24.3564 21.1034 25.4921 18.706C26.3753 16.9395 30.0345 17.1919 38.6146 21.3558H51.1063C46.6901 16.8133 37.7314 8.23317 34.4507 6.8452C30.5392 5.0787 21.7067 6.71902 18.8046 6.21431C16.5334 5.83577 13.2527 2.30276 10.8553 0.53626C10.4768 -0.220813 9.59352 -0.0946344 8.96262 0.410081L0.50864 8.35935C-0.248433 8.99024 -0.122254 10.1259 0.634819 10.7567C3.41075 13.1541 7.95319 17.0657 11.4862 20.3463C14.6407 23.2485 29.0251 30.1883 33.189 32.2071C33.946 32.4595 34.7031 32.3333 35.2078 31.8286Z" fill="#d0d5dd"/>
<path d="M62.9667 44.32V27.4121C62.9667 26.5288 62.2096 25.7717 61.3264 25.7717H39.876C40.3807 26.9073 40.7592 28.1691 40.7592 29.4309C40.7592 31.1974 40.1283 32.8377 39.1189 34.3519C38.1095 35.7399 35.7121 37.0016 33.9456 37.0016C33.0623 37.0016 32.1791 36.8755 31.2958 36.3708C27.2581 34.4781 22.5895 32.2068 18.5518 30.0618V44.32C18.5518 45.2033 19.3088 45.9603 20.1921 45.9603H61.5787C62.3358 45.8342 62.9667 45.2033 62.9667 44.32Z" fill="#d0d5dd"/>
<path d="M67.8881 85.5811H26.6276C25.7444 85.5811 24.9873 86.3381 24.9873 87.2214V104.003C24.9873 104.886 25.7444 105.643 26.6276 105.643H68.0143C68.8975 105.643 69.6546 104.886 69.6546 104.003V87.0952C69.5284 86.2119 68.7714 85.5811 67.8881 85.5811Z" fill="#d0d5dd"/>
<path d="M118.234 85.5811H76.9733C76.0901 85.5811 75.333 86.3381 75.333 87.2214V104.003C75.333 104.886 76.0901 105.643 76.9733 105.643H118.36C119.243 105.643 120 104.886 120 104.003V87.0952C119.874 86.2119 119.117 85.5811 118.234 85.5811Z" fill="#d0d5dd"/>
<path d="M118.234 33.9734H76.9733C76.0901 33.9734 75.333 34.7305 75.333 35.6137V52.3955C75.333 53.2788 76.0901 54.0358 76.9733 54.0358H118.36C119.243 54.0358 120 53.2788 120 52.3955V35.4875C119.874 34.6043 119.117 33.9734 118.234 33.9734Z" fill="#d0d5dd"/>
<path d="M26.6276 59.7144C25.7444 59.7144 24.9873 60.4714 24.9873 61.3547V78.1365C24.9873 79.0197 25.7444 79.7768 26.6276 79.7768H42.2738C43.1571 79.7768 43.9141 79.0197 43.9141 78.1365V61.3547C43.9141 60.4714 43.1571 59.7144 42.2738 59.7144H26.6276Z" fill="#d0d5dd"/>
<path d="M49.5918 61.3547V78.1365C49.5918 79.0197 50.3489 79.7768 51.2321 79.7768H93.7544C94.6376 79.7768 95.3947 79.0197 95.3947 78.1365V61.3547C95.3947 60.4714 94.6376 59.7144 93.7544 59.7144H51.2321C50.3489 59.7144 49.5918 60.4714 49.5918 61.3547Z" fill="#d0d5dd"/>
<path d="M118.234 59.7144H102.714C101.83 59.7144 101.073 60.4714 101.073 61.3547V78.1365C101.073 79.0197 101.83 79.7768 102.714 79.7768H118.36C119.243 79.7768 120 79.0197 120 78.1365V61.3547C119.874 60.4714 119.117 59.7144 118.234 59.7144Z" fill="#d0d5dd"/>
</svg>
