<svg width="165" height="105" viewBox="0 0 165 105" fill="none" xmlns="http://www.w3.org/2000/svg">
<path d="M12.8597 30.6491C9.57834 30.5958 0.731445 35.673 0.731445 35.673C0.731445 35.673 7.2996 44.7549 15.4028 53.1171L39.9604 42.9426C39.9604 42.9426 20.3 30.774 12.8597 30.6491Z" fill="white"/>
<path d="M146.361 2.84671L110.156 17.8431L61.5183 0.913177L43.9549 8.1901L76.5716 31.7543L43.0643 45.6342L18.5049 55.8069C25.7139 63.2399 34.1348 70.1018 40.2402 69.5051C51.6743 68.3831 70.3431 62.4154 89.4067 55.3038L81.7552 104.244L98.4813 97.3164L124.543 41.2861C142.876 33.5776 156.495 27.3143 156.495 27.3143C163.25 24.5159 166.458 16.7707 163.66 10.0135C160.861 3.25619 153.118 0.0483182 146.361 2.84671Z" fill="white"/>
</svg>
