<svg width="125" height="125" viewBox="0 0 125 125" fill="none" xmlns="http://www.w3.org/2000/svg">
<path d="M67.8052 33.8476L33.9773 0.0213623L18.8398 15.1613L52.6652 48.9867L67.8052 33.8476ZM26.2099 16.146L34.9636 7.39224L46.0808 18.511L37.3287 27.2631L26.2099 16.146ZM40.5618 30.4954L49.3147 21.7425L60.4326 32.8621L51.6789 41.6142L40.5618 30.4954Z" fill="d0d5dd"/>
<path d="M90.9464 56.9896L75.8081 72.1295L109.635 105.955L124.774 90.8175L90.9464 56.9896ZM83.179 73.1134L91.9327 64.3605L103.049 75.4809L94.2978 84.233L83.179 73.1134ZM108.648 98.5849L97.5309 87.4653L106.285 78.7124L117.4 89.832L108.648 98.5849Z" fill="d0d5dd"/>
<path d="M69.8316 69.7141L91.5369 48.0088L76.7852 33.2571L55.0807 54.9632L33.5737 65.3381L59.4568 91.2228L69.8316 69.7141Z" fill="d0d5dd"/>
<path d="M82.9529 30.661L80.4883 33.1256L91.662 44.2994L94.1266 41.8348L82.9529 30.661Z" fill="d0d5dd"/>
<path d="M50.4575 99.4064V99.4047C36.6096 99.3805 25.4117 88.1818 25.3867 74.3372H22.0562C22.0562 90.0237 34.7678 102.737 50.4575 102.739V99.4064Z" fill="d0d5dd"/>
<path d="M50.3366 110.168V110.166C40.4699 110.166 31.5537 106.173 25.0858 99.7074C18.6205 93.2404 14.6276 84.3217 14.6276 74.4575H11.2954C11.2954 96.0194 28.7729 113.499 50.3366 113.5V110.168Z" fill="d0d5dd"/>
<path d="M49.6783 120.704V120.703C37.0825 120.703 25.6971 115.603 17.4416 107.352C9.19098 99.0966 4.09351 87.7104 4.09101 75.1154L0.758789 75.1171C0.760455 102.134 22.6565 124.036 49.6783 124.037V120.704Z" fill="d0d5dd"/>
</svg>
