<svg width="120" height="107" viewBox="0 0 120 107" fill="none" xmlns="http://www.w3.org/2000/svg">
<path d="M3.10398 61.9562L0.0185128 31.7186C-0.104906 30.2376 0.388769 28.7566 1.49954 27.7692C2.85714 26.6584 5.07868 26.2882 6.80654 28.1395C7.91731 29.4971 8.5344 33.5699 8.78124 34.6807C9.39833 38.6301 10.1388 44.3073 10.2623 48.2567C10.2623 48.5035 10.2623 48.8738 10.2623 49.1206C10.3857 50.8485 10.7559 52.4529 11.4965 54.0574C15.5693 62.8201 23.5915 73.9278 23.5915 73.9278L24.0852 74.5449C24.4554 75.0386 25.0725 75.162 25.5662 74.9151C26.1833 74.5449 26.3067 73.8044 26.0599 73.3107L15.3224 55.9087C14.2117 53.934 14.8288 51.2188 16.9269 49.9846C19.025 48.7504 21.7402 49.3675 22.9744 51.3422L34.0821 65.6588C34.8226 66.6461 36.1802 68.0037 37.1675 68.6208C47.1645 75.7791 48.5221 83.1842 49.386 86.8868C49.386 86.8868 49.5094 87.7507 49.5094 88.9849C49.5094 89.9722 49.5094 91.2064 49.2626 92.4406L48.6455 104.412C48.6455 105.276 47.905 106.017 47.041 106.017L28.2814 105.893C27.4175 105.893 26.677 105.153 26.677 104.289L26.3067 94.4153L8.28757 72.817C5.69577 69.9784 3.84449 66.8929 3.35082 63.067L3.10398 61.9562ZM11.2496 30.2376C11.6199 31.3484 11.7433 32.3357 11.9901 33.4465C12.6072 36.9022 13.3477 43.0731 13.4712 46.282C13.4712 46.6523 13.4712 46.8991 13.4712 47.2694C13.8414 46.8991 14.2117 46.6523 14.7053 46.4054C15.199 46.0352 15.8161 45.7883 16.4332 45.6649C16.4332 45.6649 16.4332 45.5415 16.5566 45.5415C16.1864 42.456 15.0756 36.5319 14.2117 33.4465C13.718 31.842 12.8541 30.7313 11.2496 30.2376ZM17.2971 34.5572C17.7908 36.7788 19.025 40.975 19.3952 43.1965L19.6421 44.6776C19.6421 44.801 19.6421 44.9244 19.6421 45.0478C20.506 45.0478 21.4934 45.2947 22.3573 45.5415C22.1105 43.5668 20.7529 39.494 20.2592 37.6427C19.6421 36.1617 18.7782 35.0509 17.2971 34.5572ZM113.193 28.1395C112.083 29.4971 111.466 33.5699 111.219 34.6807C110.602 38.6301 109.861 44.3073 109.738 48.2567C109.738 48.5035 109.738 48.8738 109.738 49.1206C109.614 50.8485 109.244 52.4529 108.504 54.0574C104.431 62.8201 96.4085 73.9278 96.4085 73.9278L95.9148 74.5449C95.5446 75.0386 94.9275 75.162 94.4338 74.9151C93.8167 74.5449 93.6933 73.8044 93.9401 73.3107L104.678 55.9087C105.788 53.934 105.171 51.2188 103.073 49.9846C100.975 48.7504 98.2598 49.3675 97.0256 51.3422L85.9179 65.6588C85.1774 66.6461 83.8198 68.0037 82.8325 68.6208C72.8355 75.7791 71.4779 83.1842 70.614 86.8868C70.614 86.8868 70.4906 87.7507 70.4906 88.9849C70.4906 89.9722 70.4906 91.2064 70.7374 92.4406L71.3545 104.412C71.3545 105.276 72.095 106.017 72.959 106.017L91.7186 105.893C92.5825 105.893 93.3231 105.153 93.3231 104.289L93.6933 94.4153L111.712 72.817C114.304 69.9784 116.156 66.8929 116.773 63.067L116.896 61.9562L119.981 31.7186C120.105 30.2376 119.611 28.7566 118.5 27.7692C117.019 26.6584 114.798 26.2882 113.193 28.1395ZM103.567 45.4181C103.567 45.4181 103.567 45.5415 103.567 45.4181C104.184 45.6649 104.801 46.0352 105.295 46.282C105.788 46.5289 106.159 46.8991 106.529 47.1459C106.529 46.7757 106.529 46.5289 106.529 46.1586C106.652 42.8263 107.393 36.7788 108.01 33.323C108.133 32.3357 108.38 31.2249 108.75 30.1142C107.146 30.6078 106.282 31.7186 105.912 33.323C105.048 36.4085 103.937 42.3326 103.567 45.4181ZM99.8642 37.6427C99.3706 39.494 98.013 43.5668 97.7661 45.5415C98.6301 45.1712 99.494 45.0478 100.481 45.0478C100.481 44.9244 100.481 44.801 100.481 44.6776L100.728 43.1965C100.975 40.975 102.333 36.9022 102.826 34.5572C101.222 35.0509 100.358 36.1617 99.8642 37.6427ZM84.3135 39.6174C83.6964 41.9624 82.8325 44.1839 81.5983 46.282L85.1774 51.3422C85.7945 52.3295 85.6711 53.5637 84.9306 54.4276L82.709 56.6492L80.4875 58.8707C79.6236 59.7347 78.3894 59.7347 77.402 59.1176L72.3419 55.5384C70.3672 56.7726 68.1456 57.6365 65.9241 58.2536L64.9368 64.4246C64.6899 65.5353 63.7026 66.3993 62.5918 66.3993H59.5063H56.4209C55.3101 66.3993 54.3227 65.5353 54.0759 64.4246L53.0886 58.377C50.867 57.76 48.5221 56.896 46.4239 55.6618L41.4872 58.9941C40.4998 59.6112 39.2657 59.4878 38.4017 58.7473L36.1802 56.5258L34.0821 54.4276C33.2181 53.5637 33.2181 52.3295 33.8352 51.3422L37.4144 46.282C36.1802 44.1839 35.1928 41.9624 34.5757 39.7408L28.4048 38.7535C27.294 38.5066 26.4301 37.5193 26.4301 36.4085V33.323V30.2376C26.4301 29.1268 27.294 28.1395 28.4048 27.8926L34.4523 26.9053C35.0694 24.6837 35.9334 22.3388 37.1675 20.2407L33.5884 15.1805C32.9713 14.1931 33.0947 12.959 33.8352 12.095L36.0568 9.8735L38.2783 7.65196C39.1422 6.78803 40.3764 6.78803 41.3638 7.40512L46.4239 10.9843C48.5221 9.62666 50.867 8.76273 53.212 8.14563L54.1993 1.9747C54.4462 0.863931 55.4335 0 56.5443 0H59.6297H62.7152C63.826 0 64.8133 0.863931 65.0602 1.9747L66.0475 8.14563C68.3925 8.76273 70.614 9.62666 72.7121 10.8608L77.7723 7.2817C78.6362 6.66461 79.9938 6.78803 80.7343 7.52854L82.9559 9.75008L85.1774 11.9716C86.0413 12.8355 86.0413 14.0697 85.4242 15.0571L81.8451 20.1172C83.0793 22.2154 84.0667 24.4369 84.5603 26.7819L90.7313 27.7692C91.842 28.016 92.706 29.0034 92.706 30.1142V33.1996V36.2851C92.706 37.3959 91.842 38.3832 90.7313 38.6301L84.3135 39.6174ZM68.1456 24.4369C63.4557 19.747 55.8038 19.747 51.1139 24.4369C46.4239 29.1268 46.4239 36.7788 51.1139 41.4687C55.8038 46.1586 63.4557 46.1586 68.1456 41.4687C72.959 36.9022 72.8355 29.2502 68.1456 24.4369Z" fill="#d0d5dd"/>
</svg>
