<svg width="0" height="0" class="hidden">

  


  <!-- search -->
  <symbol fill="none" xmlns="http://www.w3.org/2000/svg" viewBox="0 0 24 24" id="search">
    <path fill-rule="evenodd" clip-rule="evenodd" d="M10.5 19a8.5 8.5 0 116.676-3.238l4.531 4.53a1 1 0 01-1.414 1.415l-4.531-4.531A8.463 8.463 0 0110.5 19zm4.66-3.968a1.01 1.01 0 00-.128.128 6.5 6.5 0 11.128-.128z" fill="currentColor"></path>
    <mask id="a" maskUnits="userSpaceOnUse" x="2" y="2" width="20" height="20">
      <path fill-rule="evenodd" clip-rule="evenodd" d="M10.5 19a8.5 8.5 0 116.676-3.238l4.531 4.53a1 1 0 01-1.414 1.415l-4.531-4.531A8.463 8.463 0 0110.5 19zm4.66-3.968a1.01 1.01 0 00-.128.128 6.5 6.5 0 11.128-.128z" fill="currentColor"></path>
    </mask>
    <g mask="url(#a)">
      <path d="M0 0h24v24H0z"></path>
    </g>
  </symbol>
  <!-- home -->
  <symbol id="home" viewBox="0 0 16.751 13.331" xmlns="http://www.w3.org/2000/svg">
    <path data-name="Path 83" d="M8.376 2.691L2.402 7.616a.141.141 0 0 1-.005.031.142.142 0 0 0-.005.031v4.987a.675.675 0 0 0 .665.665h3.99V9.34h2.66v3.99h3.986a.675.675 0 0 0 .665-.665V7.678a.146.146 0 0 0-.01-.062z" fill="currentColor"/>
    <path data-name="Path 84" d="M16.636 6.494l-2.275-1.888V.364a.32.32 0 0 0-.333-.332h-1.994a.32.32 0 0 0-.332.332V2.39L9.167.27a1.289 1.289 0 0 0-1.579 0L.116 6.494a.3.3 0 0 0-.115.223.336.336 0 0 0 .073.244l.644.769a.354.354 0 0 0 .218.114.386.386 0 0 0 .249-.073l7.19-6 7.19 6a.32.32 0 0 0 .218.072h.031a.355.355 0 0 0 .218-.114l.644-.769a.336.336 0 0 0 .072-.244.3.3 0 0 0-.112-.222z" fill="currentColor"/>
  </symbol>

  <!-- chevron down -->
  <symbol id="chevron-down" viewBox="0 0 20.374 11.003" xmlns="http://www.w3.org/2000/svg">
    <g data-name="Group 1">
      <path data-name="Path 130" d="M10.746 10.771l9.398-9.423A.79.79 0 0 0 19.025.232l-8.838 8.862L1.349.232A.79.79 0 0 0 .231 1.348l9.4 9.423a.789.789 0 0 0 1.118 0z" fill="#fff"/>
    </g>
  </symbol>

  <!-- chevron up -->
  <symbol id="chevron-up" viewBox="0 0 20.374 11.003" xmlns="http://www.w3.org/2000/svg">
    <g data-name="Group 1">
      <path data-name="Path 130" d="M9.628.232L.23 9.655a.79.79 0 0 0 1.119 1.116l8.838-8.862 8.838 8.862a.79.79 0 0 0 1.118-1.116l-9.4-9.423a.789.789 0 0 0-1.118 0z" fill="currentColor"/>
    </g>
  </symbol>

  <!-- chevron right -->
  <symbol id="chevron-right" viewBox="0 0 11.316 20.952" xmlns="http://www.w3.org/2000/svg">
    <path data-name="Path 130" d="M11.077 9.9L1.386.237a.812.812 0 0 0-1.147 1.15l9.114 9.089-9.114 9.089a.812.812 0 0 0 1.147 1.15l9.691-9.664a.812.812 0 0 0 0-1.15z" fill="currentColor"/>
  </symbol>

  <!-- chevron left -->
  <symbol id="chevron-left" viewBox="0 0 11.316 20.952" xmlns="http://www.w3.org/2000/svg">
    <g data-name="001-next">
    <g data-name="Group 1">
    <path data-name="Path 130" d="M.239 11.052l9.691 9.663a.812.812 0 0 0 1.147-1.15l-9.114-9.089 9.114-9.089A.812.812 0 0 0 9.93.237L.239 9.901a.812.812 0 0 0 0 1.15z" fill="currentColor"/>
    </g>
    </g>
  </symbol>

  <!-- mail -->
  <symbol id="mail" fill="none" viewBox="0 0 25 19" xmlns="http://www.w3.org/2000/svg">
    <path d="M24.674 5.088v10.54a3.299 3.299 0 0 1-3.3 3.299H4.095a3.3 3.3 0 0 1-3.298-3.299V5.088l11.56 6.359c.236.13.522.13.757 0l11.56-6.36zm-3.3-5.012a3.299 3.299 0 0 1 3.299 3.22L12.734 9.862.797 3.295l.001-.056A3.299 3.299 0 0 1 4.095.076h17.28z" fill="currentColor"/>
  </symbol> 

  <!-- facebook -->
  <symbol id="facebook" viewBox="0 0 10.755 21.508" xmlns="http://www.w3.org/2000/svg">
    <path data-name="002-facebook" d="M8.791 3.571h1.964V.151A25.355 25.355 0 0 0 7.894 0c-2.831 0-4.77 1.781-4.77 5.054v3.012H0v3.823h3.124v9.62h3.83V11.89h3l.476-3.823H6.953V5.433c.001-1.105.299-1.862 1.838-1.862z" fill="currentColor"/>
  </symbol>

  <!-- insta -->
  <symbol id="instagram" viewBox="0 0 22.874 22.879" xmlns="http://www.w3.org/2000/svg">
    <path data-name="Path 127" d="M22.816 6.726a8.36 8.36 0 0 0-.532-2.776A5.861 5.861 0 0 0 18.936.6a8.381 8.381 0 0 0-2.775-.528C14.936.013 14.551 0 11.441 0s-3.49.013-4.715.067A8.362 8.362 0 0 0 3.951.6a5.582 5.582 0 0 0-2.03 1.322A5.633 5.633 0 0 0 .603 3.947a8.382 8.382 0 0 0-.532 2.775C.013 7.947 0 8.335 0 11.442s.013 3.5.067 4.715a8.359 8.359 0 0 0 .532 2.776 5.86 5.86 0 0 0 3.352 3.347 8.383 8.383 0 0 0 2.776.532c1.22.054 1.609.067 4.715.067s3.5-.013 4.715-.067a8.358 8.358 0 0 0 2.775-.532 5.852 5.852 0 0 0 3.348-3.347 8.388 8.388 0 0 0 .532-2.776c.054-1.22.067-1.609.067-4.715s0-3.5-.058-4.715zm-2.065 9.341a6.271 6.271 0 0 1-.393 2.123 3.8 3.8 0 0 1-2.172 2.172 6.293 6.293 0 0 1-2.123.393c-1.207.054-1.569.067-4.621.067s-3.419-.013-4.621-.067a6.268 6.268 0 0 1-2.123-.393 3.52 3.52 0 0 1-1.314-.854 3.557 3.557 0 0 1-.854-1.314 6.294 6.294 0 0 1-.393-2.123c-.054-1.207-.067-1.569-.067-4.621s.013-3.419.067-4.621a6.268 6.268 0 0 1 .393-2.123 3.477 3.477 0 0 1 .858-1.314 3.552 3.552 0 0 1 1.314-.854 6.3 6.3 0 0 1 2.123-.393c1.207-.054 1.569-.067 4.621-.067s3.419.013 4.621.067a6.271 6.271 0 0 1 2.123.393 3.518 3.518 0 0 1 1.314.854 3.556 3.556 0 0 1 .854 1.314 6.3 6.3 0 0 1 .393 2.123c.054 1.207.067 1.569.067 4.621s-.013 3.41-.067 4.617zm0 0" fill="currentColor"/>
    <path data-name="Path 128" d="M11.441 5.564a5.877 5.877 0 1 0 5.877 5.877 5.879 5.879 0 0 0-5.877-5.877zm0 9.69a3.812 3.812 0 1 1 3.812-3.812 3.813 3.813 0 0 1-3.812 3.812zm0 0" fill="currentColor"/>
    <path data-name="Path 129" d="M18.923 5.332a1.372 1.372 0 1 1-1.372-1.372 1.372 1.372 0 0 1 1.372 1.372zm0 0" fill="currentColor"/>
  </symbol>

  <!-- linkedin -->
<symbol id="linkedin" fill="none" viewBox="0 0 24 24" xmlns="http://www.w3.org/2000/svg">
 <path fill-rule="evenodd" clip-rule="evenodd" d="M1 2.838A1.838 1.838 0 0 1 2.838 1H21.16A1.836 1.836 0 0 1 23 2.838V21.16A1.838 1.838 0 0 1 21.161 23H2.838A1.839 1.839 0 0 1 1 21.161V2.838zm8.708 6.55h2.979v1.496c.43-.86 1.53-1.634 3.183-1.634 3.169 0 3.92 1.713 3.92 4.856v5.822h-3.207v-5.106c0-1.79-.43-2.8-1.522-2.8-1.515 0-2.145 1.089-2.145 2.8v5.106H9.708V9.388zm-5.5 10.403h3.208V9.25H4.208V19.791zM7.875 5.812a2.063 2.063 0 1 1-4.125.09 2.063 2.063 0 0 1 4.125-.09z" fill="currentColor"/>
 </symbol>

  <!-- twitter -->
  <symbol id="twitter" fill="none" viewBox="0 0 23 18" xmlns="http://www.w3.org/2000/svg">
    <path d="M22.594 2.116a9.787 9.787 0 0 1-2.658.712 4.504 4.504 0 0 0 2.03-2.492 9.347 9.347 0 0 1-2.926 1.091A4.671 4.671 0 0 0 15.671 0c-2.554 0-4.61 2.027-4.61 4.511 0 .358.031.702.107 1.029A13.156 13.156 0 0 1 1.661.822a4.464 4.464 0 0 0-.631 2.28c0 1.562.822 2.947 2.049 3.748a4.635 4.635 0 0 1-2.084-.555v.05c0 2.191 1.599 4.012 3.695 4.43-.375.101-.785.15-1.21.15-.294 0-.593-.017-.872-.078a4.644 4.644 0 0 0 4.31 3.142 9.403 9.403 0 0 1-5.72 1.924c-.378 0-.74-.017-1.103-.062a13.2 13.2 0 0 0 7.076 2.024c8.487 0 13.128-6.875 13.128-12.834 0-.2-.007-.392-.017-.583a9.091 9.091 0 0 0 2.312-2.342z" fill="currentColor"/>
  </symbol>

  <!-- youtube -->
  <symbol id="youtube" viewBox="0 0 31.65 23.972" xmlns="http://www.w3.org/2000/svg">
    <g data-name="005-youtube" fill="currentColor">
    <path data-name="Path 137" d="M20.697 10.569l-6.992-3.826a1.284 1.284 0 0 0-1.9 1.127v7.591a1.282 1.282 0 0 0 1.893 1.131l6.992-3.76a1.284 1.284 0 0 0 .008-2.258zm-7.038 3.932v-5.67l5.226 2.859zm0 0"/>
    <path data-name="Path 138" d="M31.417 5.658v-.015a7.238 7.238 0 0 0-1.4-3.673 5.15 5.15 0 0 0-3.411-1.6l-.154-.018-.051-.006C22.213.042 15.894 0 15.83 0h-.011c-.063 0-6.382.042-10.6.346L5.16.352 5.011.37A5.02 5.02 0 0 0 1.62 2.019 7.585 7.585 0 0 0 .237 5.625v.032a63.09 63.09 0 0 0-.236 5.164v2.368c0 2.533.223 5.057.233 5.163v.016A7.167 7.167 0 0 0 1.624 22a5.255 5.255 0 0 0 3.525 1.577c.129.015.24.027.315.041l.073.01c2.416.23 9.99.343 10.312.348h.019c.063 0 6.382-.042 10.566-.346l.055-.006c.053-.007.112-.013.177-.02a4.9 4.9 0 0 0 3.362-1.608 7.584 7.584 0 0 0 1.384-3.607v-.032c.009-.106.233-2.63.233-5.163v-2.373c0-2.533-.224-5.057-.233-5.163zm-1.622 7.531c0 2.345-.2 4.76-.224 4.981a5.888 5.888 0 0 1-.91 2.569 3.05 3.05 0 0 1-2.189 1.016l-.2.022c-4.047.293-10.127.338-10.407.339-.314 0-7.778-.119-10.12-.336-.12-.02-.25-.035-.386-.05a3.468 3.468 0 0 1-2.372-.991l-.017-.018a5.342 5.342 0 0 1-.892-2.544 64.628 64.628 0 0 1-.225-4.989v-2.367c0-2.342.2-4.754.224-4.981a5.768 5.768 0 0 1 .91-2.57 3.2 3.2 0 0 1 2.237-1.058l.151-.018c4.106-.294 10.226-.338 10.45-.339s6.342.045 10.411.339l.163.019a3.321 3.321 0 0 1 2.272 1.029l.007.008a5.429 5.429 0 0 1 .892 2.581c.014.158.225 2.607.225 4.99zm0 0"/>
    </g>
  </symbol>

  <!-- phone -->
  <symbol id="phone" fill="none" viewBox="0 0 21 21" xmlns="http://www.w3.org/2000/svg">
    <path d="M20.763 16.595a.993.993 0 0 0-.523-.715l-4.203-2.477-.034-.02a1.247 1.247 0 0 0-.568-.131c-.353 0-.689.133-.922.367l-1.24 1.242a.728.728 0 0 1-.28.126c-.014-.001-1.443-.104-4.073-2.736C6.293 9.625 6.182 8.19 6.18 8.19a.663.663 0 0 1 .125-.3l1.058-1.057a1.35 1.35 0 0 0 .263-1.473L5.291.964a.966.966 0 0 0-.865-.566.996.996 0 0 0-.704.303L.838 3.579a2.209 2.209 0 0 0-.566 1.143c-.026.185-.537 4.602 5.517 10.66 5.14 5.14 9.148 5.54 10.255 5.54.135.001.27-.006.403-.021.386-.052.866-.29 1.141-.565l2.881-2.881a.993.993 0 0 0 .294-.86z" fill="currentColor"/>
  </symbol>

  <!-- location -->
  <symbol id="location" fill="none" viewBox="0 0 21 21" xmlns="http://www.w3.org/2000/svg">
    <path d="M13.57 20.998h-.07a1.161 1.161 0 0 1-1.068-.931l-1.79-8.819a1.166 1.166 0 0 0-.907-.909l-8.8-1.794a1.162 1.162 0 0 1-.933-1.07 1.167 1.167 0 0 1 .794-1.178L19.394.088a1.16 1.16 0 0 1 1.577.816c.05.22.035.451-.043.664l-6.195 18.638a1.165 1.165 0 0 1-1.162.792z" fill="currentColor"/>
  </symbol>

  <!-- plane -->
  <symbol id="plane" fill="none" viewBox="0 0 48 31" xmlns="http://www.w3.org/2000/svg">
    <path d="M3.551 8.706C2.591 8.691 0 10.177 0 10.177s1.923 2.66 4.296 5.108l7.19-2.98S5.73 8.744 3.55 8.707z" fill="currentColor"/>
    <path d="M42.639.566l-10.6 4.39L17.797 0l-5.143 2.13 9.55 6.9-9.81 4.064-7.191 2.978c2.11 2.177 4.576 4.186 6.364 4.011 3.348-.328 8.814-2.076 14.395-4.158l-2.24 14.33 4.897-2.029 7.63-16.405c5.368-2.257 9.356-4.091 9.356-4.091A3.877 3.877 0 0 0 42.639.566z" fill="currentColor"/>
  </symbol>

  <!-- kariyer -->
  <symbol id="kariyer" fill="none" viewBox="0 0 545 111" xmlns="http://www.w3.org/2000/svg">
    <path d="M42.552 89.025c-.67 0-1.308-.287-1.768-.775L19.719 65.384v21.24a2.401 2.401 0 0 1-2.404 2.4H2.4A2.4 2.4 0 0 1 0 86.625V4.242a2.402 2.402 0 0 1 2.401-2.406h14.914a2.402 2.402 0 0 1 2.404 2.406v41.16L37.49 25.588a2.354 2.354 0 0 1 1.785-.804h18.733c.951 0 1.808.552 2.191 1.422.39.87.23 1.88-.408 2.584L35.649 55.642l27.18 29.352a2.38 2.38 0 0 1 .439 2.59 2.394 2.394 0 0 1-2.197 1.44H42.552zM132.932 89.025a2.399 2.399 0 0 1-2.399-2.401V27.178a2.397 2.397 0 0 1 2.399-2.394h12.787c1.321 0 2.4 1.074 2.4 2.394v.152c.569-.51 1.165-.958 1.785-1.381 2.681-1.792 5.671-2.696 8.869-2.696 2.282 0 4.676.604 7.108 1.764a2.41 2.41 0 0 1 1.219 2.98l-4.644 12.833a2.388 2.388 0 0 1-1.369 1.422 2.35 2.35 0 0 1-.89.174c-.372 0-.737-.084-1.072-.256-1.844-.918-2.826-1.057-3.249-1.057-.503 0-2.025 0-3.719 3.032-.945 1.692-2.068 5.77-2.068 15.539l.051 2.858v24.082a2.4 2.4 0 0 1-2.405 2.4h-14.803zM174.234 89.025a2.405 2.405 0 0 1-2.404-2.401V27.178c0-1.32 1.08-2.394 2.404-2.394h14.912a2.4 2.4 0 0 1 2.4 2.394v59.446a2.402 2.402 0 0 1-2.4 2.4h-14.912zM209.534 110.763c-.823 0-1.586-.42-2.03-1.109a2.392 2.392 0 0 1-.15-2.303l11.777-25.221-22.192-54.033a2.39 2.39 0 0 1 .225-2.253 2.39 2.39 0 0 1 1.99-1.06h15.244c.976 0 1.857.585 2.222 1.483l13.331 32.195 14.74-32.28a2.392 2.392 0 0 1 2.187-1.397h15.281a2.401 2.401 0 0 1 2.187 3.401l-37.232 81.181a2.392 2.392 0 0 1-2.183 1.396h-15.397zM334.531 89.025a2.398 2.398 0 0 1-2.394-2.401V27.178a2.397 2.397 0 0 1 2.394-2.394h12.783a2.402 2.402 0 0 1 2.408 2.394v.152c.563-.51 1.159-.958 1.779-1.381 2.686-1.792 5.672-2.696 8.873-2.696 2.277 0 4.672.604 7.108 1.764a2.401 2.401 0 0 1 1.213 2.98l-4.641 12.833a2.395 2.395 0 0 1-1.368 1.422 2.38 2.38 0 0 1-1.965-.082c-1.843-.918-2.826-1.057-3.242-1.057-.505 0-2.03 0-3.717 3.032-.949 1.69-2.076 5.763-2.076 15.539l.052 2.858v24.082a2.399 2.399 0 0 1-2.401 2.4h-14.806zM181.691 21.897c-3.014 0-5.626-1.074-7.757-3.206-2.137-2.136-3.22-4.748-3.22-7.772 0-3.016 1.084-5.622 3.22-7.738C176.065 1.075 178.677 0 181.691 0c3.01 0 5.615 1.075 7.755 3.181 2.139 2.116 3.223 4.722 3.223 7.738 0 3.024-1.084 5.636-3.223 7.772-2.131 2.132-4.74 3.206-7.755 3.206zM306.272 50.14c-.937-2.36-2.195-4.403-3.779-6.167-2.669-2.955-5.697-4.396-9.261-4.396-3.893 0-7.205 1.635-10.115 4.985-1.061 1.214-2.097 3.072-3.105 5.579h26.26zm-12.173 40.42c-9.939 0-18.175-3.206-24.482-9.532-6.298-6.325-9.493-14.33-9.493-23.798 0-9.676 3.18-17.845 9.451-24.265 6.29-6.446 14.265-9.712 23.706-9.712 9.986 0 18.25 3.267 24.551 9.705 6.299 6.427 9.488 14.979 9.488 25.419l-.06 2.893a2.405 2.405 0 0 1-2.401 2.356h-44.847c.82 2.35 2.137 4.264 4.012 5.824 2.588 2.145 5.845 3.19 9.971 3.19 4.964 0 9.114-1.691 12.689-5.167a2.393 2.393 0 0 1 2.697-.455l12.566 5.901a2.4 2.4 0 0 1 1.3 1.56 2.396 2.396 0 0 1-.36 2c-3.351 4.76-7.443 8.34-12.164 10.64-4.678 2.276-10.267 3.442-16.624 3.442zM425.428 89.025a2.392 2.392 0 0 1-2.395-2.401V60.597c0-8.53-.48-12.044-.874-13.499-.502-1.83-1.308-3.15-2.474-4.052-1.165-.893-2.598-1.325-4.39-1.325-2.408 0-4.411.773-6.127 2.381-1.805 1.683-3.075 4.094-3.803 7.17-.268 1.152-.589 4.076-.589 11.504v23.848a2.398 2.398 0 0 1-2.399 2.4h-14.91a2.402 2.402 0 0 1-2.412-2.4v-59.44a2.405 2.405 0 0 1 2.412-2.4h14.91a2.402 2.402 0 0 1 2.399 2.4v1.206c2.071-1.437 4.02-2.532 5.883-3.288 3.028-1.221 6.166-1.854 9.341-1.854 6.521 0 12.137 2.324 16.692 6.88 3.915 3.96 5.887 9.752 5.887 17.214v39.282a2.398 2.398 0 0 1-2.399 2.4h-14.752zM517.991 89.025a2.4 2.4 0 0 1-2.401-2.401V4.237a2.404 2.404 0 0 1 2.401-2.401h14.918a2.4 2.4 0 0 1 2.401 2.4V24.81h6.448a2.402 2.402 0 0 1 2.399 2.399v11.305a2.405 2.405 0 0 1-2.399 2.407h-6.448v45.703a2.397 2.397 0 0 1-2.401 2.4h-14.918zM491.67 50.14c-.944-2.36-2.195-4.395-3.78-6.167-2.671-2.948-5.694-4.388-9.256-4.388-3.899 0-7.215 1.63-10.119 4.985-1.06 1.215-2.095 3.075-3.105 5.57h26.26zm-12.202 40.42c-9.942 0-18.181-3.206-24.486-9.53-6.298-6.324-9.494-14.325-9.494-23.793 0-9.672 3.179-17.846 9.455-24.272 6.281-6.44 14.261-9.716 23.704-9.716 9.989 0 18.248 3.27 24.553 9.716 6.287 6.425 9.48 14.982 9.48 25.425l-.052 2.888a2.405 2.405 0 0 1-2.404 2.352H465.38c.818 2.345 2.142 4.275 4.016 5.823 2.579 2.15 5.838 3.186 9.968 3.186 4.962 0 9.115-1.69 12.686-5.163a2.396 2.396 0 0 1 2.701-.458l12.565 5.912c.643.292 1.115.87 1.3 1.552.179.69.051 1.421-.358 2.004-3.359 4.76-7.451 8.334-12.167 10.635-4.68 2.282-10.268 3.44-16.623 3.44zM368.395 90.561c-3.009 0-5.623-1.077-7.752-3.212-2.139-2.133-3.22-4.75-3.22-7.766 0-3.02 1.081-5.63 3.22-7.744 2.129-2.104 4.743-3.183 7.752-3.183 3.013 0 5.621 1.079 7.756 3.183 2.137 2.113 3.227 4.724 3.227 7.744 0 3.016-1.09 5.633-3.22 7.767-2.136 2.134-4.744 3.212-7.763 3.212z" fill="currentColor"/>
    <path d="M90.727 71.538c4.017 0 7.49-1.437 10.332-4.281 2.842-2.836 4.29-6.312 4.29-10.34 0-4.018-1.448-7.495-4.29-10.31-2.852-2.805-6.323-4.232-10.332-4.232-4.014 0-7.487 1.427-10.326 4.232-2.84 2.815-4.288 6.292-4.288 10.31 0 4.028 1.44 7.504 4.286 10.34 2.84 2.844 6.314 4.281 10.328 4.281zm-2.738 19.024c-8.325 0-15.618-3.268-21.672-9.692-6.005-6.39-9.05-14.424-9.05-23.856 0-9.76 2.948-17.897 8.77-24.196 5.868-6.35 13.108-9.565 21.515-9.565 3.877 0 7.577.746 10.988 2.21a28.483 28.483 0 0 1 5.327 3.042v-1.327a2.4 2.4 0 0 1 2.402-2.393h14.914a2.394 2.394 0 0 1 2.401 2.393v59.445a2.396 2.396 0 0 1-2.401 2.402h-14.914a2.401 2.401 0 0 1-2.402-2.402v-1.166c-1.799 1.296-3.619 2.324-5.427 3.084-3.219 1.336-6.73 2.021-10.45 2.021z" fill="currentColor"/>
  </symbol>

  <!-- close -->
  <symbol id="close" fill="none" viewBox="0 0 16 16" xmlns="http://www.w3.org/2000/svg">
    <path d="M9.176 7.982l6.632-6.614A.796.796 0 0 0 15.23.05a.801.801 0 0 0-.551.192L8.048 6.857 1.416.235A.804.804 0 0 0 .044.8a.8.8 0 0 0 .236.567l6.64 6.614-6.64 6.614a.799.799 0 0 0-.046 1.17.8.8 0 0 0 1.174-.045l6.64-6.614 6.632 6.614a.802.802 0 0 0 1.32-.575.796.796 0 0 0-.192-.55L9.176 7.982z" fill="currentColor"/>
 </symbol>

<!-- Defend & Aviation -->
 <symbol id="aviation" fill="none" xmlns="http://www.w3.org/2000/svg" viewBox="0 0 96 120" >
    <path d="M48 120C96 102 96 18 96 18C72 18 48 0 48 0C48 0 24 18 0 18C0 18 0 102 48 120ZM48 36C51.5601 36 55.0402 37.0557 58.0003 39.0335C60.9603 41.0114 63.2675 43.8226 64.6298 47.1117C65.9922 50.4008 66.3487 54.02 65.6541 57.5116C64.9596 61.0033 63.2453 64.2106 60.7279 66.7279C58.2106 69.2453 55.0033 70.9596 51.5116 71.6541C48.02 72.3487 44.4008 71.9922 41.1117 70.6298C37.8226 69.2675 35.0114 66.9603 33.0335 64.0003C31.0557 61.0402 30 57.5601 30 54C30 49.2261 31.8964 44.6477 35.2721 41.2721C38.6477 37.8964 43.2261 36 48 36V36Z" fill="black"></path>
  </symbol>

  <!-- About-1 -->
  <symbol id="about-1" viewBox="0 0 256 256" xmlns="http://www.w3.org/2000/svg">
    <g fill="currentColor">
      <path d="m224 80-96 56-96-56 96-56Z" opacity=".2"/>
      <path d="M230.91 172a8 8 0 0 1-2.91 10.91l-96 56a8 8 0 0 1-8.06 0l-96-56A8 8 0 0 1 36 169.09l92 53.65 92-53.65a8 8 0 0 1 10.91 2.91M220 121.09l-92 53.65-92-53.65a8 8 0 0 0-8 13.82l96 56a8 8 0 0 0 8.06 0l96-56a8 8 0 1 0-8.06-13.82M24 80a8 8 0 0 1 4-6.91l96-56a8 8 0 0 1 8.06 0l96 56a8 8 0 0 1 0 13.82l-96 56a8 8 0 0 1-8.06 0l-96-56A8 8 0 0 1 24 80m23.88 0L128 126.74 208.12 80 128 33.26Z"/>
    </g>
  </symbol>
 

</svg>

