<svg width="146" height="168" viewBox="0 0 146 168" fill="none" xmlns="http://www.w3.org/2000/svg">
<path d="M129.491 48.7348L140.215 38.0111C143.065 35.1604 143.065 30.5396 140.215 27.6889C137.364 24.8383 132.743 24.8383 129.893 27.6889L119.169 38.4126C108.35 29.5541 94.9621 23.736 80.3036 22.2723V14.6H87.6037C91.6332 14.6 94.9036 11.3296 94.9036 7.3C94.9036 3.2704 91.6332 0 87.6037 0H58.4036C54.3741 0 51.1036 3.2704 51.1036 7.3C51.1036 11.3296 54.3741 14.6 58.4036 14.6H65.7037V22.2723C28.8642 25.9442 0 57.1116 0 94.9C0 135.152 32.7478 167.9 73 167.9C113.252 167.9 146 135.152 146 94.9C146 77.3983 139.799 61.3237 129.491 48.7348ZM95.1263 102.2H73C68.9704 102.2 65.7 98.9296 65.7 94.9V57.4875C65.7 53.4579 68.9704 50.1875 73 50.1875C77.0296 50.1875 80.3 53.4579 80.3 57.4875V87.6H95.1263C99.1559 87.6 102.426 90.8704 102.426 94.9C102.426 98.9296 99.1596 102.2 95.1263 102.2Z" fill="url(#paint0_linear)"/>
<defs>
<linearGradient id="paint0_linear" x1="73" y1="0" x2="73" y2="167.9" gradientUnits="userSpaceOnUse">
<stop stop-color="#A7A7A7" stop-opacity="0.44"/>
<stop offset="1" stop-color="#949494" stop-opacity="0"/>
</linearGradient>
</defs>
</svg>
