<svg width="120" height="120" viewBox="0 0 120 120" fill="none" xmlns="http://www.w3.org/2000/svg">
<path d="M12.3954 37.158C12.3954 31.4525 17.0166 26.8313 22.7221 26.8313C26.4138 26.8313 29.8216 28.7934 31.6546 31.9947L35.2173 29.9293C31.2416 23.0105 22.4123 20.6353 15.4934 24.6369C8.57456 28.6385 6.19943 37.4678 10.201 44.3866C10.9755 45.7033 11.9307 46.9167 13.0925 47.9235L15.8548 44.8513C13.6604 42.8893 12.3954 40.1011 12.3954 37.158Z" fill="#d0d5dd"/>
<path d="M22.7233 18.5701C26.7507 18.5701 30.6748 19.8609 33.8761 22.2877L36.3545 18.9831C26.3118 11.4447 12.0868 13.4842 4.54837 23.5269C-2.18977 32.511 -1.36364 45.0579 6.51043 53.0611L9.45353 50.1696C2.27651 42.8377 2.37977 31.0653 9.71169 23.8883C13.1969 20.4805 17.8697 18.5701 22.7233 18.5701Z" fill="#d0d5dd"/>
<path d="M68.7539 31.5297L73.9947 41.1335C74.8725 40.1783 75.776 39.223 76.6796 38.2678C77.8414 37.0544 79.0289 35.8669 80.2681 34.6793L70.7934 29.516C70.2513 30.2905 69.5542 30.9875 68.7539 31.5297Z" fill="#d0d5dd"/>
<path d="M64.0301 28.8968C66.3114 28.8968 68.1607 27.0475 68.1607 24.7662C68.1607 22.4849 66.3114 20.6355 64.0301 20.6355C61.7488 20.6355 59.8994 22.4849 59.8994 24.7662C59.8994 27.0475 61.7488 28.8968 64.0301 28.8968Z" fill="#d0d5dd"/>
<path d="M39.7617 70.7971C41.0784 73.2497 42.9113 75.3925 45.1574 77.0447C49.159 74.4631 52.8507 71.4683 56.2069 68.0864C56.6974 66.2534 57.3945 64.472 58.2464 62.794C56.9298 60.5995 55.3808 58.5342 53.6769 56.6238C51.4566 59.3087 48.9524 62.0453 46.2159 64.756C44.0731 66.9246 41.9045 68.9383 39.7617 70.7971Z" fill="#d0d5dd"/>
<path d="M91.9644 41.0307L84.0903 36.7193C82.6446 38.0876 81.173 39.5591 79.6757 41.1081C78.4365 42.3732 77.2489 43.664 76.113 44.9548L80.3211 52.674L76.7068 54.6619L73.2215 48.2852C69.2458 53.0096 65.8896 57.6566 63.4886 61.8131C60.3648 67.2087 59.8227 70.126 59.9518 71.3652C60.2874 71.675 60.623 71.959 60.9844 72.243C61.0102 72.243 61.0361 72.243 61.0361 72.243C65.3733 72.243 76.9133 65.066 89.7442 51.7446C96.5856 44.645 102.343 37.2873 105.957 31.0397C109.984 24.0692 109.7 21.2293 109.287 20.8163C109.158 20.6872 108.848 20.6097 108.41 20.6097C104.95 20.6097 96.9212 25.1793 87.3174 33.7504L93.9781 37.3905L91.9644 41.0307Z" fill="#d0d5dd"/>
<path d="M108.28 52.2092C111.998 46.8652 114.941 41.0048 117.006 34.8346L117.574 33.1049C116.413 30.3425 114.864 27.7351 113.005 25.3857C112.359 27.606 111.198 30.1876 109.468 33.1307C107.299 36.7967 104.898 40.3078 102.239 43.6381C104.589 46.2714 106.628 49.137 108.28 52.2092Z" fill="#d0d5dd"/>
<path d="M90.079 69.9967C95.9136 66.1242 101.129 61.3739 105.517 55.9008C103.968 52.6479 101.98 49.6274 99.6312 46.9166C97.4884 49.4983 95.1391 52.08 92.6865 54.6616C89.8467 57.6305 86.7229 60.5994 83.5732 63.336C85.1481 66.0467 87.3941 68.3444 90.079 69.9967Z" fill="#d0d5dd"/>
<path d="M112.977 65.5823C117.546 59.438 119.999 52.3642 119.999 45.1355C119.999 43.38 119.844 41.6245 119.56 39.8948C117.211 45.8068 114.113 51.3832 110.292 56.469C111.505 59.4121 112.409 62.4585 112.977 65.5823Z" fill="#d0d5dd"/>
<path d="M102.186 72.7849L106.601 72.346C107.427 71.6489 108.227 70.9261 109.027 70.1516C109.156 70.0225 109.286 69.8934 109.389 69.7643L109.234 68.4218C108.872 65.6336 108.227 62.8713 107.323 60.2122C103.528 64.6526 99.2171 68.6026 94.4668 71.9845C96.9452 72.7849 99.5785 73.043 102.186 72.7849Z" fill="#d0d5dd"/>
<path d="M58.6349 80.6591C59.5126 79.9879 60.3646 79.2651 61.1907 78.4906C61.3714 78.3098 61.5521 78.1549 61.707 77.9742C60.8293 77.3804 59.9773 76.7608 59.1512 76.1154C58.4025 75.8831 57.7055 75.47 57.1633 74.902C56.8277 74.5406 56.5437 74.1275 56.3114 73.6628C54.0653 75.7024 51.6644 77.587 49.1602 79.3167C52.1549 80.5817 55.4078 81.0464 58.6349 80.6591Z" fill="#d0d5dd"/>
<path d="M113.03 105.314L106.163 77.8453C105.104 78.5682 104.046 79.2136 102.936 79.8074L93.8223 105.314H113.03Z" fill="#d0d5dd"/>
<path d="M65.4238 75.4699C67.4633 76.7091 69.6319 77.716 71.878 78.5163C76.8864 77.0189 81.6883 74.9794 86.2062 72.3978C83.8827 70.6681 81.8948 68.4995 80.3458 66.0469C75.0276 70.3583 69.7352 73.8693 65.4238 75.4699Z" fill="#d0d5dd"/>
<path d="M72.2923 109.444H39.247C38.111 109.444 37.1816 110.374 37.1816 111.51V119.771H74.3576V111.51C74.3576 110.374 73.4282 109.444 72.2923 109.444Z" fill="#d0d5dd"/>
<path d="M40.666 86.7259C44.5127 86.7001 48.3077 85.9256 51.8704 84.5057C49.4694 84.0152 47.1718 83.1632 45.0548 81.9498C42.1375 83.6537 39.117 85.1511 35.9932 86.4419C37.4131 86.6485 38.8588 86.7259 40.3045 86.7259C40.4336 86.7259 40.5369 86.7259 40.666 86.7259Z" fill="#d0d5dd"/>
<path d="M36.5104 73.4818C34.0061 75.5213 31.3728 77.3801 28.6105 79.0582C26.9582 80.0909 25.2027 80.9428 23.3955 81.6657C25.1252 82.8274 26.984 83.7826 28.9203 84.5571C33.2316 83.2405 37.3881 81.485 41.3381 79.3164C39.4276 77.6641 37.8012 75.6762 36.5104 73.4818Z" fill="#d0d5dd"/>
<path d="M117.729 109.444H88.8144C87.6784 109.444 86.749 110.374 86.749 111.51V119.771H119.794V111.51C119.794 110.374 118.865 109.444 117.729 109.444Z" fill="#d0d5dd"/>
<path d="M63.6937 105.314L60.4924 84.4541C58.2722 86.0547 55.8454 87.3714 53.3154 88.404L48.2295 105.314H63.6937Z" fill="#d0d5dd"/>
<path d="M90.2331 74.7985C86.7736 76.9154 83.1335 78.7484 79.3643 80.2716C80.8358 80.4523 82.3074 80.5556 83.8047 80.5556C83.9338 80.5556 84.0887 80.5556 84.2178 80.5556C89.4586 80.5039 94.6219 79.2906 99.3463 77.0187C96.1967 76.8896 93.0987 76.1409 90.2331 74.7985Z" fill="#d0d5dd"/>
<path d="M25.8467 42.5023L31.3973 51.7446C31.6812 51.4348 31.991 51.1508 32.275 50.8669C33.9789 49.163 35.7344 47.5107 37.4642 45.9617L28.0669 40.3079C27.5248 41.2114 26.7761 41.9601 25.8467 42.5023Z" fill="#d0d5dd"/>
<path d="M43.2997 61.8645C45.9847 59.1796 48.4631 56.443 50.6575 53.7839L41.1828 48.1559C39.1691 49.9114 37.1554 51.7702 35.1933 53.7581C34.6512 54.3002 34.109 54.8424 33.5927 55.3845L36.8714 60.8577L33.3345 62.9746L30.6496 58.5083C27.0353 62.5616 23.9631 66.5631 21.7687 70.1258C18.3351 75.728 18.4383 78.0515 18.6707 78.3613C18.9805 78.5679 21.304 78.6711 26.9062 75.2375C31.8888 72.217 37.6975 67.4667 43.2997 61.8645Z" fill="#d0d5dd"/>
<path d="M22.7235 39.2237C23.8642 39.2237 24.7889 38.299 24.7889 37.1583C24.7889 36.0177 23.8642 35.093 22.7235 35.093C21.5829 35.093 20.6582 36.0177 20.6582 37.1583C20.6582 38.299 21.5829 39.2237 22.7235 39.2237Z" fill="#d0d5dd"/>
<path d="M64.0305 8.24353C54.9172 8.24353 47.5078 15.6529 47.5078 24.7662C47.5078 30.1618 50.1411 35.2219 54.5816 38.3199L56.9567 34.9379C51.3287 31.0396 49.9604 23.2946 53.8587 17.6924C57.757 12.0644 65.502 10.6961 71.1042 14.5944C72.3176 15.4206 73.3503 16.479 74.2022 17.6924L77.5842 15.3173C74.4862 10.9026 69.4261 8.24353 64.0305 8.24353Z" fill="#d0d5dd"/>
<path d="M49.7775 45.0322L52.1526 41.6502C42.807 35.0928 40.5609 22.2103 47.1442 12.8905C53.7274 3.57067 66.5841 1.2988 75.9039 7.88204C78.0467 9.40522 79.9055 11.3157 81.3254 13.5101L84.7848 11.264C77.3238 -0.198562 61.9629 -3.45146 50.5003 4.00955C39.0378 11.4706 35.7849 26.8314 43.2459 38.294C44.9756 40.9273 47.1958 43.225 49.7775 45.0322Z" fill="#d0d5dd"/>
</svg>
